<?xml version="1.0" encoding="UTF-8"?>
<svg width="39px" height="28px" viewBox="0 0 39 28" version="1.1" xmlns="http://www.w3.org/2000/svg" xmlns:xlink="http://www.w3.org/1999/xlink">
    <!-- Generator: Sketch 45 (43475) - http://www.bohemiancoding.com/sketch -->
    <title>Fill 1</title>
    <desc>Created with Sketch.</desc>
    <defs></defs>
    <g id="Symbols" stroke="none" stroke-width="1" fill="none" fill-rule="evenodd">
        <g id="icon-/-car-/-car-grey" fill="#5C596D">
            <path d="M35.0529116,14.5210535 C35.0529116,15.0553082 34.6234725,15.5437697 34.0932882,15.6119508 L27.7493945,16.4311415 C27.2192102,16.5003402 26.9363096,16.1441703 27.2181926,15.6892906 C28.8311332,13.0790744 32.3714614,12.6567587 34.0851472,12.6130007 C34.619402,12.5997716 35.0529116,13.0607571 35.0529116,13.5950119 L35.0529116,14.5210535 Z M14.2861742,21.3676556 L24.5306367,21.3676556 L24.5306367,18.6689057 L14.2861742,18.6689057 L14.2861742,21.3676556 Z M11.1447562,16.4311415 L4.79984478,15.6119508 C4.26966052,15.5437697 3.84022145,15.0553082 3.84022145,14.5210535 L3.84022145,13.5950119 C3.84022145,13.0607571 4.27373103,12.5997716 4.8079858,12.6130007 C6.52268921,12.6567587 10.0619999,13.0790744 11.6759581,15.6892906 C11.9568234,16.1441703 11.6739228,16.5003402 11.1447562,16.4311415 L11.1447562,16.4311415 Z M9.7923284,2.1009021 C11.4510623,1.40586208 16.976783,1.35498067 19.4465665,1.35091016 C21.9173676,1.35498067 27.4430884,1.40586208 29.1018223,2.1009021 C29.6228479,2.51812963 31.4403317,4.86172723 33.3310848,8.15986001 L19.9798037,8.15986001 L18.9133294,8.15986001 L5.56306588,8.15986001 C7.45280132,4.86172723 9.27028517,2.51812963 9.7923284,2.1009021 L9.7923284,2.1009021 Z M39.0043616,8.13034879 C38.7519898,7.34168699 37.3191694,7.09643861 35.8029035,7.58184723 C35.4365574,7.69887446 35.1007401,7.8484658 34.8025751,8.0184097 L34.1105879,6.81252036 C32.2503637,3.67415519 30.3412933,1.18096626 29.7276636,0.900100899 C28.4892101,0.335317284 25.5828642,0.0361346128 19.9798037,0.0025528844 L19.9798037,-0.0005 C19.7976482,-0.0005 19.6256691,0.000517628134 19.4465665,0.00153525627 C19.2684816,0.000517628134 19.0965024,-0.0005 18.9133294,-0.0005 L18.9133294,0.0025528844 C13.3102689,0.0361346128 10.4049405,0.335317284 9.16750473,0.900100899 C8.55285734,1.18096626 6.64276933,3.67415519 4.7825451,6.81252036 L4.1567038,7.90545297 C3.87889132,7.75382638 3.57156762,7.61949947 3.23982085,7.51366614 C1.72457256,7.02825752 0.291752144,7.2735059 0.038362739,8.06216771 C-0.214009038,8.85082951 0.808707237,9.88270444 2.32395553,10.3681131 C2.48474077,10.4200121 2.64349076,10.4617348 2.80224075,10.4963342 C1.54241712,13.1116385 0.606199238,15.7645951 0.606199238,17.745917 L0.606199238,25.8869421 C0.606199238,26.5087129 1.11094279,27.0124388 1.73373121,27.0124388 L5.47249698,27.0124388 C6.09426777,27.0124388 6.59901132,26.5087129 6.59901132,25.8869421 L6.59901132,23.4293702 L32.2951393,23.4293702 L32.2951393,25.8869421 C32.2951393,26.5087129 32.7988653,27.0124388 33.4206361,27.0124388 L37.1604194,27.0124388 C37.7832079,27.0124388 38.2869338,26.5087129 38.2869338,25.8869421 L38.2869338,17.745917 C38.2869338,15.7880005 37.3731037,13.1737138 36.1366855,10.5879207 C36.3279996,10.5492509 36.5223666,10.4993871 36.7197865,10.4362941 C38.2340171,9.95088552 39.257751,8.9190106 39.0043616,8.13034879 L39.0043616,8.13034879 Z" id="Fill-1"></path>
        </g>
    </g>
</svg>